# xmcd
# Track frame offsets:
# 150
# 16112
# 29377
# 52092
# 66940
# 88357
# 107337
# 125502
# 138575
# 151345
# 167860
#
# Disc length: 2424 seconds
# Revision: 0
# Processed by: cddbd v1.4PL0 Copyright (c) Steve Scherf et al.
# Submitted via: VisiTrax 2.9.5.181 - For more info visit www.synapsa.com
#
DISCID=9409760b
DTITLE=Kenny Rogers - The Gambler
DYEAR=1978
DGENRE=
TTITLE0=The Gambler
TTITLE1=I Wish That I Could Hurt That Way Again
TTITLE2=The King of Oak Street
TTITLE3=Making Music for Money
TTITLE4=The Hoodooin' of Miss Fannie Deberry
TTITLE5=She Believes in Me
TTITLE6=Tennessee Bottle
TTITLE7=Sleep Tight, Goodnight Man
TTITLE8=A Little More Like Me (The Crucifixion)
TTITLE9=San Francisco Mabel Joy
TTITLE10=Morgana Jones
EXTD=JEK    Dreamcatcher Records DCR 902-2 c.78 c.2001
EXTT0=
EXTT1=
EXTT2=
EXTT3=
EXTT4=
EXTT5=
EXTT6=
EXTT7=
EXTT8=
EXTT9=
EXTT10=
PLAYORDER=
